<svg width="3425" height="500" version="1" xmlns="http://www.w3.org/2000/svg"><g fill="#236ca4" fill-rule="evenodd"><path d="M583 189l16 43h2l18-47 22-48h67L600 376h-66l36-77-79-162h68l24 52zm270 60c25 12 34 34 34 55 0 48-35 75-95 75-38 0-70-17-88-47l39-30c13 16 30 24 45 24 24 0 39-8 39-25 0-18-12-28-31-28h-36v-41h34c18 0 29-9 29-25 0-14-10-23-30-23-18 0-36 11-44 17l-32-31c19-23 45-37 80-37 53 0 82 26 82 70 0 15-8 37-26 46zm130 37v90h-60V137h60v90h69v-90h61v239h-61v-90h-69zm292-149l86 239h-65l-16-48h-64l-14 48h-65l83-239h55zm-45 137h36l-17-70h-2l-17 70zm249-157c-32 0-62-20-62-59h47c0 9 6 14 15 14 8 0 14-5 14-14h47c0 39-30 59-61 59zm37 259v-96l6-45h-2l-22 47-58 94h-57V137h61v108l-5 36h1l20-42 61-102h56v239h-61zm291 0v-80c-8 7-25 13-44 13-42 0-82-27-82-82v-90h61v90c0 16 10 25 26 25 14 0 30-4 38-11l1-104h61v239h-61zm279-182h-63v182h-62V194h-63v-58h188v58zm23 103v-81c0-56 49-83 99-83 49 0 99 28 99 83v81c0 55-49 82-99 82s-99-27-99-82zm60-81v81c0 18 20 26 39 26s39-8 39-26v-81c0-19-20-27-40-27-19 0-38 9-38 27zm419-22h-64v182h-61V194h-63v-58h188v58zm122-57l86 239h-65l-16-48h-64l-14 48h-65l83-239h55zm-45 137h36l-17-70h-1l-18 70zm214-49l65-88h75l-94 117 94 122h-76l-62-85-2 2v83h-61V137h61v88zm142 72v-81c0-56 50-83 99-83 50 0 100 28 100 83v81c0 55-50 82-99 82-50 0-100-27-100-82zm61-81v81c0 18 19 26 39 26 19 0 38-8 38-26v-81c0-19-20-27-39-27s-38 9-38 27zm238-22v37h96v52h-96v36h105v57h-167V137h167v57h-105z"/><path d="M243 3C140 3 56 87 56 189v6L3 295c-2 3-1 8 3 10l50 21v104c0 4 4 8 8 8h103l15 56 1 6h227l-2-10-48-155a188 188 0 0 0 70-146C430 87 346 3 243 3zm44 303v10c0 7-6 14-14 15l-2 8c-1 5-6 9-11 9h-23c-5 0-10-4-11-9l-2-8c-8-1-13-8-13-15v-10c0-5 4-9 9-9h57c5 0 10 4 10 9zm44-129c0 22-9 42-23 56a74 74 0 0 0-21 40c-1 7-6 12-13 12h-51c-7 0-12-5-13-12-3-15-10-29-21-40a80 80 0 0 1-23-55c0-45 36-81 82-82 46 0 83 36 83 81zm-73-49c0 5-4 9-9 9-23 0-41 18-41 40 0 5-4 9-9 9-6 0-10-4-10-9 0-32 27-58 60-58 5 0 9 4 9 9zm-1-56c0 4-4 8-9 8s-9-4-9-8V54c0-5 4-9 9-9s9 4 9 9v18zm-64 21c-4 0-6-1-8-4l-9-15c-3-4-1-9 3-12 4-2 10-1 12 3l9 16c4 5-1 12-7 12zm-45 40l-16-9a9 9 0 1 1 8-14l16 9c4 2 5 7 4 10-2 5-8 7-12 4zm-38 45c0-4 4-8 9-8h18c5 0 9 4 9 8 0 5-4 9-9 9h-18c-5 0-9-4-9-9zm26 72c-4 0-8-3-8-7-1-3 1-7 4-9l15-9c5-2 10-1 12 3 3 4 1 9-3 12l-16 9-4 1zm226-16c4 2 6 7 4 11-2 5-8 6-12 4l-16-9a9 9 0 1 1 9-15l15 9zm-13-56c0-4 4-8 9-8h18c5 0 9 4 9 8 0 5-4 9-9 9h-18c-5 0-9-4-9-9zm5-68a9 9 0 0 1 8 14l-15 9c-5 3-11 1-13-5-1-3 1-7 4-9l4-3 12-6zm-52-17c-6 0-10-7-7-12l9-16c3-4 8-5 12-3 4 3 6 8 3 12l-9 15c-2 3-5 4-8 4z" fill-rule="nonzero"/></g></svg>